<svg xmlns="http://www.w3.org/2000/svg" width="24" height="21" viewBox="0 0 24 21" fill="none">
  <path d="M12 18.375C9.5 18.375 7.375 17.6094 5.625 16.0781C3.875 14.5469 3 12.6875 3 10.5C3 8.3125 3.875 6.45312 5.625 4.92188C7.375 3.39062 9.5 2.625 12 2.625C12.2333 2.625 12.4625 2.63229 12.6875 2.64687C12.9125 2.66146 13.1333 2.68333 13.35 2.7125C12.6667 3.13542 12.1208 3.68594 11.7125 4.36406C11.3042 5.04219 11.1 5.775 11.1 6.5625C11.1 7.875 11.625 8.99062 12.675 9.90937C13.725 10.8281 15 11.2875 16.5 11.2875C17.4167 11.2875 18.2583 11.1089 19.025 10.7516C19.7917 10.3943 20.4167 9.91667 20.9 9.31875C20.9333 9.50833 20.9583 9.70156 20.975 9.89844C20.9917 10.0953 21 10.2958 21 10.5C21 12.6875 20.125 14.5469 18.375 16.0781C16.625 17.6094 14.5 18.375 12 18.375ZM12 16.625C13.4667 16.625 14.7833 16.2714 15.95 15.5641C17.1167 14.8568 17.9667 13.9344 18.5 12.7969C18.1667 12.8698 17.8333 12.9281 17.5 12.9719C17.1667 13.0156 16.8333 13.0375 16.5 13.0375C14.45 13.0375 12.7042 12.4068 11.2625 11.1453C9.82083 9.88385 9.1 8.35625 9.1 6.5625C9.1 6.27083 9.125 5.97917 9.175 5.6875C9.225 5.39583 9.29167 5.10417 9.375 4.8125C8.075 5.27917 7.02083 6.02292 6.2125 7.04375C5.40417 8.06458 5 9.21667 5 10.5C5 12.1917 5.68333 13.6354 7.05 14.8313C8.41667 16.0271 10.0667 16.625 12 16.625Z" fill="#1D1B20"/>
</svg>
